<svg xmlns="http://www.w3.org/2000/svg" viewBox="0 0 64 64" fill="none">
  <!-- Cloud shape -->
  <path d="M52 32c0-2.5-1-4.8-2.6-6.5C49.8 23.3 48 21 45.5 19.5c-2-1.2-4.3-1.9-6.8-1.9-3.5 0-6.7 1.4-9 3.7C27.3 19.5 24.5 18 21.3 18c-6.1 0-11 5-11 11.1 0 1.5.3 2.9.8 4.2C8.3 34.5 7 37 7 39.8 7 44.8 11.1 49 16 49h34c4.4 0 8-3.6 8-8 0-3.9-2.8-7.2-6.5-7.9-.3-.4-.5-.7-.5-1.1z" fill="#6366F1"/>
  <!-- Umbrella handle (arc) -->
  <path d="M32 42v8c0 2.2-1.8 4-4 4h0c-2.2 0-4-1.8-4-4v-2" stroke="#8B5CF6" stroke-width="2.5" stroke-linecap="round" fill="none"/>
</svg>

